<?xml version="1.0" encoding="utf-8"?>
<COLLADA xmlns="http://www.collada.org/2005/11/COLLADASchema" version="1.4.1" xmlns:xsi="http://www.w3.org/2001/XMLSchema-instance">
  <asset>
    <contributor>
      <author>Blender User</author>
      <authoring_tool>Blender 4.5.8 LTS commit date:2026-03-16, commit time:16:54, hash:d7359176d0d3</authoring_tool>
    </contributor>
    <created>2026-06-16T10:55:55</created>
    <modified>2026-06-16T10:55:55</modified>
    <unit name="meter" meter="1"/>
    <up_axis>Z_UP</up_axis>
  </asset>
  <library_cameras>
    <camera id="Camera-camera" name="Camera">
      <optics>
        <technique_common>
          <perspective>
            <xfov sid="xfov">39.59775</xfov>
            <aspect_ratio>1.777778</aspect_ratio>
            <znear sid="znear">0.1</znear>
            <zfar sid="zfar">100</zfar>
          </perspective>
        </technique_common>
      </optics>
      <extra>
        <technique profile="blender">
          <shiftx sid="shiftx" type="float">0</shiftx>
          <shifty sid="shifty" type="float">0</shifty>
          <dof_distance sid="dof_distance" type="float">10</dof_distance>
        </technique>
      </extra>
    </camera>
  </library_cameras>
  <library_lights>
    <light id="Light-light" name="Light">
      <technique_common>
        <point>
          <color sid="color">1000 1000 1000</color>
          <constant_attenuation>1</constant_attenuation>
          <linear_attenuation>0</linear_attenuation>
          <quadratic_attenuation>0</quadratic_attenuation>
        </point>
      </technique_common>
      <extra>
        <technique profile="blender">
          <type sid="type" type="int">0</type>
          <flag sid="flag" type="int">0</flag>
          <mode sid="mode" type="int">2097153</mode>
          <red sid="red" type="float">1</red>
          <green sid="green" type="float">1</green>
          <blue sid="blue" type="float">1</blue>
          <energy sid="blender_energy" type="float">1000</energy>
          <spotsize sid="spotsize" type="float">75</spotsize>
          <spotblend sid="spotblend" type="float">0.15</spotblend>
          <clipsta sid="clipsta" type="float">0.04999995</clipsta>
          <clipend sid="clipend" type="float">40</clipend>
          <radius sid="radius" type="float">0.1</radius>
          <area_shape sid="area_shape" type="int">1</area_shape>
          <area_size sid="area_size" type="float">0.1</area_size>
          <area_sizey sid="area_sizey" type="float">0.1</area_sizey>
          <area_sizez sid="area_sizez" type="float">1</area_sizez>
        </technique>
      </extra>
    </light>
  </library_lights>
  <library_effects>
    <effect id="Material_002-effect">
      <profile_COMMON>
        <technique sid="common">
          <lambert>
            <emission>
              <color sid="emission">0 0 0 1</color>
            </emission>
            <diffuse>
              <color sid="diffuse">0.02955664 0.02955687 0.02955685 1</color>
            </diffuse>
            <index_of_refraction>
              <float sid="ior">1.5</float>
            </index_of_refraction>
          </lambert>
        </technique>
      </profile_COMMON>
    </effect>
    <effect id="Material_003-effect">
      <profile_COMMON>
        <technique sid="common">
          <lambert>
            <emission>
              <color sid="emission">0 0 0 1</color>
            </emission>
            <diffuse>
              <color sid="diffuse">0.1149909 0.1149909 0.1149909 1</color>
            </diffuse>
            <index_of_refraction>
              <float sid="ior">1.5</float>
            </index_of_refraction>
          </lambert>
        </technique>
      </profile_COMMON>
    </effect>
    <effect id="Material_001-effect">
      <profile_COMMON>
        <technique sid="common">
          <lambert>
            <emission>
              <color sid="emission">0 0 0 1</color>
            </emission>
            <diffuse>
              <color sid="diffuse">0.02955664 0.02955687 0.02955685 1</color>
            </diffuse>
            <index_of_refraction>
              <float sid="ior">1.5</float>
            </index_of_refraction>
          </lambert>
        </technique>
      </profile_COMMON>
    </effect>
  </library_effects>
  <library_images/>
  <library_materials>
    <material id="Material_002-material" name="Material.002">
      <instance_effect url="#Material_002-effect"/>
    </material>
    <material id="Material_003-material" name="Material.003">
      <instance_effect url="#Material_003-effect"/>
    </material>
    <material id="Material_001-material" name="Material.001">
      <instance_effect url="#Material_001-effect"/>
    </material>
  </library_materials>
  <library_geometries>
    <geometry id="Cube_004-mesh" name="Cube.004">
      <mesh>
        <source id="Cube_004-mesh-positions">
          <float_array id="Cube_004-mesh-positions-array" count="156">-1 -1 -1 1 0.7333334 -0.666666 -1 -1 1 1 -0.7333334 -0.666666 -1 1 -1 -1 0.7333334 -0.666666 -1 1 1 -1 -0.7333334 -0.666666 1 0.7333334 21.33334 1 -1 -1 1 -1 1 -1 -0.7333334 21.33333 1 1 -1 1 -0.7333334 21.33334 1 1 1 -1 0.7333334 21.33334 -1 -0.7333334 1 -1 0.7333334 1 1 -0.7333334 1 1 0.7333334 1 -0.7272728 0.9000001 -1 -0.7272728 0.8333334 -1 0.7272728 0.8333334 -1 0.7272728 0.9000001 -1 0.7272728 0.8333334 1 0.7272728 0.9000001 1 -0.7272728 0.8333334 1 -0.7272728 0.9000001 1 -0.7272728 -0.9000001 -1 -0.7272728 -0.8333334 -1 0.7272728 -0.8333334 -1 0.7272728 -0.9000001 -1 -0.7272728 -0.9000001 1 -0.7272728 -0.8333334 1 0.7272728 -0.9000001 1 0.7272728 -0.8333334 1 -0.6363638 -0.7333334 21 -0.6363638 -0.7333334 64.33333 -0.6363638 0.7333334 21 -0.6363638 0.7333334 64.33333 1 -0.7333334 21 1 -0.7333334 64.33333 1 0.7333334 21 1 0.7333334 64.33333 -1 -0.7333334 21 -1 -0.7333334 64.33333 -1 0.7333334 21 -1 0.7333334 64.33333 -0.6363637 -0.7333334 21 -0.6363637 -0.7333334 64.33333 -0.6363637 0.7333334 21 -0.6363637 0.7333334 64.33333</float_array>
          <technique_common>
            <accessor source="#Cube_004-mesh-positions-array" count="52" stride="3">
              <param name="X" type="float"/>
              <param name="Y" type="float"/>
              <param name="Z" type="float"/>
            </accessor>
          </technique_common>
        </source>
        <source id="Cube_004-mesh-normals">
          <float_array id="Cube_004-mesh-normals-array" count="294">-1 0 0 -1 0 0 0 1 0 1 0 0 1 0 0 0 -1 0 0 0 -1 0 0 -1 0 0 -1 0 0 1 0 0 1 0 0 1 0 0 1 0 -1 0 -1 0 0 1 0 0 0 1 0 1 0 0 0 -1 0 -1 0 0 0 1 0 1 0 0 0 -1 0 -1 0 0 0 1 0 -1 0 0 0 1 0 1 0 0 0 -1 0 0 0 -1 0 0 1 -1 0 0 0 1 0 1 0 0 0 -1 0 0 0 -1 0 0 1 -1 0 0 -1 0 0 -1 0 0 -1 0 0 -1 0 0 -1 0 0 0 1 0 1 0 0 1 0 0 1 0 0 1 0 0 1 0 0 1 0 0 0 -1 0 0 0 -1 0 0 -1 0 0 -1 0 0 -1 0 0 -1 0 0 -1 0 0 -1 0 0 -1 0 0 -1 0 0 -1 0 0 -1 0 0 1 0 0 1 0 0 1 0 0 1 0 0 1 0 0 1 0 0 1 0 0 1 0 0 1 0 0 1 0 0 1 0 0 1 0 -1 0 -1 0 0 1 0 0 0 1 0 1 0 0 0 -1 0 -1 0 0 0 1 0 1 0 0 0 -1 0 -1 0 0 0 1 0 -1 0 0 0 1 0 1 0 0 0 -1 0 0 0 -1 0 0 1 -1 0 0 0 1 0 1 0 0 0 -1 0 0 0 -1 0 0 1</float_array>
          <technique_common>
            <accessor source="#Cube_004-mesh-normals-array" count="98" stride="3">
              <param name="X" type="float"/>
              <param name="Y" type="float"/>
              <param name="Z" type="float"/>
            </accessor>
          </technique_common>
        </source>
        <source id="Cube_004-mesh-map-0">
          <float_array id="Cube_004-mesh-map-0-array" count="588">0.4166667 0.2166666 0.375 0.25 0.375 0 0.625 0.0333333 0.4166667 0.2166666 0.4166667 0.0333333 0.625 0.25 0.375 0.5 0.375 0.25 0.375 0.5 0.4166667 0.7166666 0.375 0.75 0.4166667 0.7166666 0.625 0.5333333 0.625 0.7166666 0.625 0.75 0.375 1 0.375 0.75 0.125 0.5 0.3409091 0.5125001 0.1590909 0.5125 0.375 0.75 0.1590908 0.7374999 0.3409091 0.7374999 0.375 0.5 0.375 0.75 0.3409091 0.7291667 0.875 0.75 0.6590909 0.7375 0.8409091 0.7375001 0.625 0.7166666 0.875 0.7166666 0.6590909 0.7291666 0.875 0.5333333 0.625 0.5333333 0.840909 0.5208333 0.625 0.5 0.8409091 0.5125 0.6590909 0.5125 0.3819444 0.75 0.4666666 1 0.3819444 1 0.4666666 0 0.3819444 0.25 0.3819444 0 0.4666666 0.5 0.3819444 0.75 0.3819444 0.5 0.4666666 0.25 0.3819444 0.5 0.3819444 0.25 0.49375 0 0.53125 0.25 0.53125 0 0.49375 0.25 0.53125 0.5 0.53125 0.25 0.49375 0.75 0.53125 0.5 0.49375 0.5 0.49375 1 0.53125 0.75 0.49375 0.75 0.49375 0 0.53125 0.25 0.53125 0 0.49375 0.25 0.53125 0.5 0.53125 0.25 0.49375 0.75 0.53125 0.5 0.49375 0.5 0.49375 1 0.53125 0.75 0.49375 0.75 0.625 0 0.375 0.25 0.375 0 0.625 0.25 0.375 0.5 0.375 0.25 0.625 0.5 0.375 0.75 0.375 0.5 0.625 0.75 0.375 1 0.375 0.75 0.375 0.5 0.125 0.75 0.125 0.5 0.875 0.5 0.625 0.75 0.625 0.5 0.625 0 0.375 0.25 0.375 0 0.625 0.25 0.375 0.5 0.375 0.25 0.625 0.5 0.375 0.75 0.375 0.5 0.625 0.75 0.375 1 0.375 0.75 0.375 0.5 0.125 0.75 0.125 0.5 0.875 0.5 0.625 0.75 0.625 0.5 0.4166667 0.2166666 0.625 0.2166666 0.625 0.25 0.375 0 0.625 0 0.4166667 0.0333333 0.625 0 0.625 0.0333333 0.4166667 0.0333333 0.4166667 0.2166666 0.625 0.25 0.375 0.25 0.375 0 0.4166667 0.0333333 0.4166667 0.2166666 0.625 0.0333333 0.625 0.2166666 0.4166667 0.2166666 0.625 0.25 0.625 0.5 0.375 0.5 0.375 0.5 0.625 0.5 0.4166667 0.5333333 0.625 0.5 0.625 0.5333333 0.4166667 0.5333333 0.625 0.7166666 0.625 0.75 0.4166667 0.7166666 0.625 0.75 0.375 0.75 0.4166667 0.7166666 0.375 0.5 0.4166667 0.5333333 0.4166667 0.7166666 0.4166667 0.7166666 0.4166667 0.5333333 0.625 0.5333333 0.625 0.75 0.625 1 0.375 1 0.125 0.5 0.375 0.5 0.3409091 0.5125001 0.375 0.75 0.125 0.75 0.1590908 0.7374999 0.1590909 0.7291666 0.1590908 0.7374999 0.125 0.75 0.125 0.75 0.125 0.5 0.1590909 0.5208333 0.125 0.5 0.1590909 0.5125 0.1590909 0.5208333 0.1590909 0.7291666 0.125 0.75 0.1590909 0.5208333 0.3409091 0.5208333 0.3409091 0.5125001 0.375 0.5 0.1590909 0.7291666 0.1590909 0.5208333 0.3409091 0.5208333 0.375 0.75 0.3409091 0.7374999 0.3409091 0.7291667 0.3409091 0.7291667 0.1590909 0.7291666 0.3409091 0.5208333 0.3409091 0.5208333 0.375 0.5 0.3409091 0.7291667 0.875 0.75 0.625 0.75 0.6590909 0.7375 0.6590909 0.7291666 0.6590909 0.7375 0.625 0.75 0.875 0.7166666 0.875 0.75 0.8409091 0.7375001 0.875 0.7166666 0.8409091 0.7375001 0.8409091 0.7291666 0.6590909 0.7291666 0.625 0.75 0.625 0.7166666 0.875 0.7166666 0.8409091 0.7291666 0.6590909 0.7291666 0.840909 0.5208333 0.8409091 0.5125 0.875 0.5 0.625 0.5333333 0.625 0.5 0.6590909 0.5125 0.625 0.5333333 0.6590909 0.5125 0.6590908 0.5208333 0.840909 0.5208333 0.875 0.5 0.875 0.5333333 0.625 0.5333333 0.6590908 0.5208333 0.840909 0.5208333 0.625 0.5 0.875 0.5 0.8409091 0.5125 0.3819444 0.75 0.4666666 0.75 0.4666666 1 0.4666666 0 0.4666666 0.25 0.3819444 0.25 0.4666666 0.5 0.4666666 0.75 0.3819444 0.75 0.4666666 0.25 0.4666666 0.5 0.3819444 0.5 0.49375 0 0.49375 0.25 0.53125 0.25 0.49375 0.25 0.49375 0.5 0.53125 0.5 0.49375 0.75 0.53125 0.75 0.53125 0.5 0.49375 1 0.53125 1 0.53125 0.75 0.49375 0 0.49375 0.25 0.53125 0.25 0.49375 0.25 0.49375 0.5 0.53125 0.5 0.49375 0.75 0.53125 0.75 0.53125 0.5 0.49375 1 0.53125 1 0.53125 0.75 0.625 0 0.625 0.25 0.375 0.25 0.625 0.25 0.625 0.5 0.375 0.5 0.625 0.5 0.625 0.75 0.375 0.75 0.625 0.75 0.625 1 0.375 1 0.375 0.5 0.375 0.75 0.125 0.75 0.875 0.5 0.875 0.75 0.625 0.75 0.625 0 0.625 0.25 0.375 0.25 0.625 0.25 0.625 0.5 0.375 0.5 0.625 0.5 0.625 0.75 0.375 0.75 0.625 0.75 0.625 1 0.375 1 0.375 0.5 0.375 0.75 0.125 0.75 0.875 0.5 0.875 0.75 0.625 0.75</float_array>
          <technique_common>
            <accessor source="#Cube_004-mesh-map-0-array" count="294" stride="2">
              <param name="S" type="float"/>
              <param name="T" type="float"/>
            </accessor>
          </technique_common>
        </source>
        <vertices id="Cube_004-mesh-vertices">
          <input semantic="POSITION" source="#Cube_004-mesh-positions"/>
        </vertices>
        <triangles material="Material_002-material" count="74">
          <input semantic="VERTEX" source="#Cube_004-mesh-vertices" offset="0"/>
          <input semantic="NORMAL" source="#Cube_004-mesh-normals" offset="1"/>
          <input semantic="TEXCOORD" source="#Cube_004-mesh-map-0" offset="2" set="0"/>
          <p>5 0 0 4 0 1 0 0 2 16 1 3 5 1 4 7 1 5 6 2 6 12 2 7 4 2 8 12 3 9 3 3 10 9 3 11 3 4 12 19 4 13 18 4 14 10 5 15 0 5 16 9 5 17 4 6 18 23 6 19 20 6 20 9 7 21 28 7 22 31 7 23 12 8 24 9 8 25 30 8 26 2 9 27 34 9 28 32 9 29 18 10 30 16 10 31 35 10 32 17 11 33 19 11 34 26 11 35 14 12 36 27 12 37 25 12 38 18 13 39 11 13 40 16 13 41 11 14 42 17 14 43 16 14 44 8 15 45 18 15 46 19 15 47 15 16 48 19 16 49 17 16 50 21 17 51 27 17 52 26 17 53 20 18 54 25 18 55 27 18 56 22 19 57 25 19 58 23 19 59 21 20 60 24 20 61 22 20 62 28 21 63 33 21 64 32 21 65 29 22 66 35 22 67 33 22 68 31 23 69 35 23 70 30 23 71 28 24 72 34 24 73 31 24 74 5 37 111 17 37 112 6 37 113 0 38 114 2 38 115 7 38 116 2 39 117 16 39 118 7 39 119 5 40 120 6 40 121 4 40 122 0 41 123 7 41 124 5 41 125 16 42 126 17 42 127 5 42 128 6 43 129 14 43 130 12 43 131 12 44 132 14 44 133 1 44 134 14 45 135 19 45 136 1 45 137 18 46 138 10 46 139 3 46 140 10 47 141 9 47 142 3 47 143 12 48 144 1 48 145 3 48 146 3 49 147 1 49 148 19 49 149 10 50 150 2 50 151 0 50 152 4 51 153 12 51 154 23 51 155 9 52 156 0 52 157 28 52 158 29 53 159 28 53 160 0 53 161 0 54 162 4 54 163 21 54 164 4 55 165 20 55 166 21 55 167 29 56 168 0 56 169 21 56 170 22 57 171 23 57 172 12 57 173 29 58 174 21 58 175 22 58 176 9 59 177 31 59 178 30 59 179 30 60 180 29 60 181 22 60 182 22 61 183 12 61 184 30 61 185 2 62 186 10 62 187 34 62 188 35 63 189 34 63 190 10 63 191 16 64 192 2 64 193 32 64 194 16 65 195 32 65 196 33 65 197 35 66 198 10 66 199 18 66 200 16 67 201 33 67 202 35 67 203 26 68 204 27 68 205 6 68 206 19 69 207 14 69 208 25 69 209 19 70 210 25 70 211 24 70 212 26 71 213 6 71 214 17 71 215 19 72 216 24 72 217 26 72 218 14 73 219 6 73 220 27 73 221 18 74 222 13 74 223 11 74 224 11 75 225 15 75 226 17 75 227 8 76 228 13 76 229 18 76 230 15 77 231 8 77 232 19 77 233 21 78 234 20 78 235 27 78 236 20 79 237 23 79 238 25 79 239 22 80 240 24 80 241 25 80 242 21 81 243 26 81 244 24 81 245 28 82 246 29 82 247 33 82 248 29 83 249 30 83 250 35 83 251 31 84 252 34 84 253 35 84 254 28 85 255 32 85 256 34 85 257</p>
        </triangles>
        <triangles material="Material_003-material" count="12">
          <input semantic="VERTEX" source="#Cube_004-mesh-vertices" offset="0"/>
          <input semantic="NORMAL" source="#Cube_004-mesh-normals" offset="1"/>
          <input semantic="TEXCOORD" source="#Cube_004-mesh-map-0" offset="2" set="0"/>
          <p>37 25 75 38 25 76 36 25 77 39 26 78 42 26 79 38 26 80 43 27 81 40 27 82 42 27 83 41 28 84 36 28 85 40 28 86 42 29 87 36 29 88 38 29 89 39 30 90 41 30 91 43 30 92 37 86 258 39 86 259 38 86 260 39 87 261 43 87 262 42 87 263 43 88 264 41 88 265 40 88 266 41 89 267 37 89 268 36 89 269 42 90 270 40 90 271 36 90 272 39 91 273 37 91 274 41 91 275</p>
        </triangles>
        <triangles material="Material_001-material" count="12">
          <input semantic="VERTEX" source="#Cube_004-mesh-vertices" offset="0"/>
          <input semantic="NORMAL" source="#Cube_004-mesh-normals" offset="1"/>
          <input semantic="TEXCOORD" source="#Cube_004-mesh-map-0" offset="2" set="0"/>
          <p>45 31 93 46 31 94 44 31 95 47 32 96 50 32 97 46 32 98 51 33 99 48 33 100 50 33 101 49 34 102 44 34 103 48 34 104 50 35 105 44 35 106 46 35 107 47 36 108 49 36 109 51 36 110 45 92 276 47 92 277 46 92 278 47 93 279 51 93 280 50 93 281 51 94 282 49 94 283 48 94 284 49 95 285 45 95 286 44 95 287 50 96 288 48 96 289 44 96 290 47 97 291 45 97 292 49 97 293</p>
        </triangles>
      </mesh>
    </geometry>
  </library_geometries>
  <library_visual_scenes>
    <visual_scene id="Scene" name="Scene">
      <node id="Cube_001" name="Cube.001" type="NODE">
        <matrix sid="transform">0.11 0 0 0 0 0.15 0 0 0 0 0.003 0.002 0 0 0 1</matrix>
        <instance_geometry url="#Cube_004-mesh" name="Cube.001">
          <bind_material>
            <technique_common>
              <instance_material symbol="Material_002-material" target="#Material_002-material">
                <bind_vertex_input semantic="UVMap" input_semantic="TEXCOORD" input_set="0"/>
              </instance_material>
              <instance_material symbol="Material_003-material" target="#Material_003-material">
                <bind_vertex_input semantic="UVMap" input_semantic="TEXCOORD" input_set="0"/>
              </instance_material>
              <instance_material symbol="Material_001-material" target="#Material_001-material">
                <bind_vertex_input semantic="UVMap" input_semantic="TEXCOORD" input_set="0"/>
              </instance_material>
            </technique_common>
          </bind_material>
        </instance_geometry>
      </node>
      <node id="Camera" name="Camera" type="NODE">
        <matrix sid="transform">0.6859207 -0.3240135 0.6515582 7.358891 0.7276763 0.3054208 -0.6141704 -6.925791 0 0.8953956 0.4452714 4.958309 0 0 0 1</matrix>
        <instance_camera url="#Camera-camera"/>
      </node>
      <node id="Light" name="Light" type="NODE">
        <matrix sid="transform">-0.2908646 -0.7711008 0.5663932 4.076245 0.9551712 -0.1998834 0.2183912 1.005454 -0.05518906 0.6045247 0.7946723 5.903862 0 0 0 1</matrix>
        <instance_light url="#Light-light"/>
      </node>
    </visual_scene>
  </library_visual_scenes>
  <scene>
    <instance_visual_scene url="#Scene"/>
  </scene>
</COLLADA>